# xmcd CD database file
#
# Track frame offsets:
#	150
#	17949
#	35138
#	50322
#	68383
#	89929
#	121667
#	136834
#	150734
#	166542
#	181968
#	200277
#	217739
#	234072
#	253236
#	270177
#	284509
#	301200
#	314331
#	330752
#
# Disc length: 4597 seconds
#
# Revision: 2
# Processed by: cddbd v1.4b41PL1 Copyright (c) Steve Scherf et al.
# Submitted via: Feurio! 1.51.10ß - http://www.feurio.com
#
DISCID=0211f314
DTITLE=Various Artist - Brabo Hits 30 CD1
DYEAR=1900
DGENRE=
TTITLE0=Das Bo - Türlich, türlich (sicher,sicher)
TTITLE1=Sonique - It feels so good
TTITLE2=Verena - Ist das alles?
TTITLE3=Jennifer Lopez - Lets get loud
TTITLE4=Eminem - The real slim Shady
TTITLE5=Melanie C. - I turn to you
TTITLE6=Sascha - Chemical reaction
TTITLE7=Tim Tim - Singalong song
TTITLE8=The Underdog Project - Summer Jam
TTITLE9=Andrea and John - Gewinner
TTITLE10=DJ Sash - With my owm eyes
TTITLE11=Ronan Keating - Life is a rollercoaster
TTITLE12=Eifel 65 - On goal
TTITLE13=No Mercy - Morena
TTITLE14=Roller Girl - You make me feel like dancing
TTITLE15=Dajango - Baila chica baila
TTITLE16=Schiller - Ein schöner Tag
TTITLE17=Robby Williams - Rock DJ
TTITLE18=Laith Al-deen - Bilder von Dir
TTITLE19=Zladko - Ich bleibe wer ich bin
EXTD=\r\n
EXTT0=
EXTT1=
EXTT2=
EXTT3=
EXTT4=
EXTT5=
EXTT6=
EXTT7=
EXTT8=
EXTT9=
EXTT10=
EXTT11=
EXTT12=
EXTT13=
EXTT14=
EXTT15=
EXTT16=
EXTT17=
EXTT18=
EXTT19=
PLAYORDER=
